<svg width="23" height="22" viewBox="0 0 23 22" fill="none" xmlns="http://www.w3.org/2000/svg">
<path d="M11.7605 2.10557C14.6589 2.10557 15.0022 2.11829 16.1421 2.16913C17.2014 2.21575 17.7735 2.39372 18.1549 2.54203C18.6591 2.73696 19.0235 2.97425 19.4007 3.35139C19.782 3.73276 20.0151 4.09295 20.21 4.5972C20.3583 4.97858 20.5363 5.55487 20.5829 6.61C20.6338 7.75412 20.6465 8.09735 20.6465 10.9915C20.6465 13.89 20.6338 14.2332 20.5829 15.3731C20.5363 16.4325 20.3583 17.0045 20.21 17.3859C20.0151 17.8901 19.7778 18.2546 19.4007 18.6317C19.0193 19.0131 18.6591 19.2461 18.1549 19.4411C17.7735 19.5894 17.1972 19.7673 16.1421 19.814C14.9979 19.8648 14.6547 19.8775 11.7605 19.8775C8.86209 19.8775 8.51886 19.8648 7.37898 19.814C6.31961 19.7673 5.74755 19.5894 5.36618 19.4411C4.86192 19.2461 4.4975 19.0088 4.12036 18.6317C3.73899 18.2503 3.50593 17.8901 3.31101 17.3859C3.16269 17.0045 2.98472 16.4282 2.93811 15.3731C2.88726 14.229 2.87455 13.8857 2.87455 10.9915C2.87455 8.09312 2.88726 7.74988 2.93811 6.61C2.98472 5.55063 3.16269 4.97858 3.31101 4.5972C3.50593 4.09295 3.74323 3.72852 4.12036 3.35139C4.50173 2.97002 4.86192 2.73696 5.36618 2.54203C5.74755 2.39372 6.32385 2.21575 7.37898 2.16913C8.51886 2.11829 8.86209 2.10557 11.7605 2.10557ZM11.7605 0.1521C8.81548 0.1521 8.44682 0.164812 7.28999 0.215662C6.1374 0.266511 5.34499 0.45296 4.65852 0.71992C3.94239 0.999593 3.33643 1.36825 2.73471 1.97421C2.12875 2.57593 1.76009 3.18189 1.48042 3.89378C1.21346 4.58449 1.02701 5.37266 0.97616 6.52525C0.92531 7.68632 0.912598 8.05498 0.912598 11C0.912598 13.9451 0.92531 14.3137 0.97616 15.4705C1.02701 16.6231 1.21346 17.4155 1.48042 18.102C1.76009 18.8182 2.12875 19.4241 2.73471 20.0258C3.33643 20.6276 3.94239 21.0004 4.65428 21.2759C5.34499 21.5428 6.13316 21.7293 7.28575 21.7801C8.44258 21.831 8.81124 21.8437 11.7563 21.8437C14.7013 21.8437 15.07 21.831 16.2268 21.7801C17.3794 21.7293 18.1718 21.5428 18.8583 21.2759C19.5702 21.0004 20.1761 20.6276 20.7779 20.0258C21.3796 19.4241 21.7525 18.8182 22.0279 18.1063C22.2949 17.4156 22.4813 16.6274 22.5322 15.4748C22.583 14.318 22.5957 13.9493 22.5957 11.0043C22.5957 8.05922 22.583 7.69056 22.5322 6.53373C22.4813 5.38114 22.2949 4.58873 22.0279 3.90226C21.7609 3.18189 21.3923 2.57593 20.7863 1.97421C20.1846 1.37249 19.5786 0.999593 18.8668 0.724158C18.176 0.457197 17.3879 0.270749 16.2353 0.219899C15.0742 0.164812 14.7056 0.1521 11.7605 0.1521Z" fill="#D5D5D5"/>
<path d="M11.7607 5.42773C8.68435 5.42773 6.18848 7.9236 6.18848 11C6.18848 14.0764 8.68435 16.5723 11.7607 16.5723C14.8372 16.5723 17.333 14.0764 17.333 11C17.333 7.9236 14.8372 5.42773 11.7607 5.42773ZM11.7607 14.6146C9.7649 14.6146 8.14619 12.9959 8.14619 11C8.14619 9.00416 9.7649 7.38544 11.7607 7.38544C13.7566 7.38544 15.3753 9.00416 15.3753 11C15.3753 12.9959 13.7566 14.6146 11.7607 14.6146Z" fill="#D5D5D5"/>
<path d="M18.8542 5.2074C18.8542 5.92777 18.2695 6.5083 17.5533 6.5083C16.833 6.5083 16.2524 5.92353 16.2524 5.2074C16.2524 4.48703 16.8372 3.90649 17.5533 3.90649C18.2695 3.90649 18.8542 4.49127 18.8542 5.2074Z" fill="#D5D5D5"/>
</svg>
